<svg width="24" height="24" fill="none" xmlns="http://www.w3.org/2000/svg"><path fill-rule="evenodd" clip-rule="evenodd" d="M.663 12C.663 5.747 5.747.663 12 .663S23.337 5.747 23.337 12 18.253 23.337 12 23.337.663 18.253.663 12Zm1.548-.032c0 5.4 4.389 9.79 9.789 9.79 5.4 0 9.79-4.39 9.79-9.79 0-5.4-4.39-9.79-9.79-9.79-5.4.001-9.79 4.39-9.79 9.79Zm10.231-6.884h-.884c-.569 0-1.01.41-.98.916l.475 7.958c.031.474.442.82.979.82.505 0 .947-.378.979-.82L13.42 6c.032-.474-.41-.916-.979-.916ZM12 18.916a1.39 1.39 0 1 0 0-2.78 1.39 1.39 0 0 0 0 2.78Z" fill="#DC2626"/></svg>