<svg xmlns="http://www.w3.org/2000/svg" fill="none" viewBox="0 0 649 176" width="128" height="35">
  <path fill="#FFF" fill-rule="evenodd" d="M42.8 19.5v25.4h42.7c6.4 0 11.6 5.2 11.6 11.6 4.3-7.3 14.8-13.7 29.1-13.7 27.7 0 43.7 21.2 43.7 49.3 0 28.7-17.9 48.9-44.7 48.9-13 0-22.7-5.2-27.3-11.6v42.9c0 1.7-1.4 3-3 3H75.2c-1.7 0-3-1.4-3-3V67.6H42.7v39.7c0 8.3 3.9 11 11.2 11 1.5 0 3.2-.1 4.6-.2 1.8-.2 3.3 1.1 3.3 2.9v15.6c0 1.3-.9 2.4-2.1 2.8-2.6.8-6.7 1.6-12.4 1.6-18.4 0-30-11-30-29.3V67.6H3.10001c-1.7 0-3.000004-1.4-3.000004-3V47.8c0-1.7 1.400004-3 3.000004-3h1.9C15 44.8 19.6 38.3 19.6 29.8V19.5c0-1.7 1.4-3 3-3h17.2c1.7 0 3 1.4 3 3Zm54.7 72.8c0 16.7 10.6 25.8 23.7 25.8s23.5-8.9 23.5-25.8c0-16.8-10.4-26.6-23.5-26.6s-23.7 9.8-23.7 26.6ZM183.3.199997H203c1.6 0 2.9 1.300003 3 3.000003v133.9c0 1.7-1.4 3-3 3h-19.7c-1.7 0-3-1.4-3-3V3.2c0-1.7 1.4-3.000003 3-3.000003ZM260.9 61.1c0-9.6-7.8-17.2-17.3-17.2-9.3 0-16.9 7.7-16.9 17.2 0 9.4 7.6 17 16.9 17 9.5 0 17.3-7.6 17.3-17Zm0 62.9c0-9.6-7.8-17.2-17.3-17.2-9.3 0-16.9 7.6-16.9 17.2 0 9.4 7.6 17 16.9 17 9.5 0 17.3-7.6 17.3-17Zm184.2-79.1h-5.3v-8.7c0-.6-.5-1-1-1h-5.9c-.6 0-1 .5-1 1v3.5c0 2.9-1.6 5.1-5 5.1h-.7c-.6 0-1 .5-1 1v5.8c0 .6.5 1 1 1h4.8v15c0 6.3 3.9 10 10.2 10 1.9 0 3.3-.2 4.2-.5.4-.1.7-.5.7-.9v-5.4c0-.6-.5-1.1-1.1-1-.5.1-1.1.1-1.6.1-2.5 0-3.8-.9-3.8-3.7V52.7h5.5c.6 0 1-.5 1-1v-5.8c0-.6-.5-1-1-1Zm19.5 33.2c9.6 0 16.9-7.2 16.9-17.1 0-9.9-7.2-17.1-16.9-17.1-9.6 0-16.9 7.1-16.9 17.1 0 9.9 7.3 17.1 16.9 17.1Zm0-26.3c4.3 0 8.2 3.1 8.2 9.2s-3.9 9.2-8.2 9.2c-4.3 0-8.2-3.2-8.2-9.2 0-6.1 3.9-9.2 8.2-9.2Zm-69.9 25.3h6.7c.6 0 1-.4 1.1-.9V58.6c0-3.7 2.2-6.7 6-6.7 4.2 0 6 2.8 6 6.4v17.8c0 .6.5 1 1 1h6.7c.6 0 1-.5 1-1V56.8c0-7.1-3.7-12.8-11.7-12.8-3.5 0-7.3 1.6-9.3 4.9v-3c0-.6-.5-1-1-1h-6.5c-.6 0-1 .5-1 1v30.2c0 .6.5 1 1 1Zm-21.7 1c9.6 0 16.9-7.2 16.9-17.1 0-9.9-7.3-17.1-16.9-17.1-9.6 0-16.9 7.1-16.9 17.1 0 9.9 7.3 17.1 16.9 17.1Zm0-26.3c4.3 0 8.2 3.1 8.2 9.2s-4 9.2-8.2 9.2c-4.3 0-8.2-3.2-8.2-9.2 0-6.1 3.9-9.2 8.2-9.2Zm-18.4 1.6c.6 0 1.1-.4 1.1-1v-6.7c0-.5-.4-1-.9-1h-1.1c-2.8 0-7.2.7-9.2 5v-3.8c0-.6-.5-1-1-1H337c-.6 0-1 .5-1 1v30.3c0 .6.5 1 1 1h6.8c.6 0 1-.5 1-1V62.4c0-6.9 3.8-9.1 8.3-9.1.5 0 1 0 1.5.1Zm-39.2 24.7c9.6 0 16.9-7.2 16.9-17.1 0-9.9-7.3-17.1-16.9-17.1-9.6 0-16.9 7.1-16.9 17.1 0 9.9 7.3 17.1 16.9 17.1Zm-.1-26.3c4.3 0 8.2 3.1 8.2 9.2s-3.9 9.2-8.2 9.2c-4.3 0-8.2-3.2-8.2-9.2 0-6.1 3.9-9.2 8.2-9.2Zm-19.4-6.9h-5.3v-8.7c0-.6-.5-1-1-1h-5.9c-.6 0-1 .5-1 1v3.5c0 2.9-1.6 5.1-5 5.1h-.7c-.6 0-1 .5-1 1v5.8c0 .6.5 1 1 1h4.8v15c0 6.3 3.9 10 10.2 10 1.9 0 3.3-.2 4.2-.5.4-.1.7-.5.7-.9v-5.4c0-.6-.5-1.1-1.1-1-.5.1-1.1.1-1.6.1-2.5 0-3.8-.9-3.8-3.7V52.7h5.5c.6 0 1-.5 1-1v-5.8c0-.6-.5-1-1-1Zm315.9 71.4c.6 0 1.1-.4 1.1-1h.1v-6.8c0-.5-.4-1-.9-1H611c-2.8 0-7.2.7-9.2 5v-3.8c0-.6-.5-1-1-1h-6.5c-.6 0-1 .5-1 1V139c0 .6.5 1 1 1h6.7c.6 0 1-.5 1-1v-13.7c0-6.9 3.8-9.1 8.3-9.1.5 0 1 0 1.5.1Zm-59.3 0c.6 0 1.1-.4 1.1-1h.1v-6.8c0-.5-.4-1-.9-1h-1.1c-2.8 0-7.2.7-9.2 5v-3.8c0-.6-.5-1-1-1H535c-.6 0-1 .5-1 1V139c0 .6.5 1 1 1h6.7c.6 0 1-.5 1-1v-13.7c0-6.9 3.8-9.1 8.3-9.1.5 0 1 0 1.5.1Zm74.4 19.6-7 15.4c-.3.7.2 1.4.9 1.4h7.1c.4 0 .7-.2.9-.6l19.4-43c.3-.7-.2-1.4-.9-1.4h-7.1c-.4 0-.7.2-.9.6l-7.7 18.3-8.3-18.3c-.2-.4-.5-.6-.9-.6h-7.6c-.7 0-1.2.7-.9 1.4l13 26.8Zm-57.3 5c4.3 0 7.6-2.2 9-5.3v.4c0 1.1.1 2.3.2 3.1.1.5.5.9 1 .9h6.4c.6 0 1-.5 1-1.1-.1-1.1-.2-2.8-.2-4.8v-25.4c0-.6-.5-1-1-1h-6.5c-.6 0-1 .5-1 1v3c-.7-1.8-3.4-4.9-9.2-4.9-9.3 0-15.5 7.5-15.5 16.9 0 9.8 6.3 17.2 15.8 17.2Zm8.9-17.1c0 5.9-3.4 9.6-7.9 9.6-4.7 0-8-3.8-8.1-9.6 0-5.9 3.4-9.4 8.1-9.4 4.6 0 7.9 3.5 7.9 9.4Zm-81.6-30.3V139c0 .6.4 1 1 .9h6.5c.6 0 1-.5 1-1V136c1.7 2.7 5.1 4.7 9.6 4.7 9.2 0 15.2-7.2 15.2-17 0-9.5-5.5-16.8-14.9-16.8-4.8 0-8.4 2.1-9.8 4.4V93.5c0-.6-.5-1-1-1h-6.6c-.6 0-1 .5-1 1Zm8.4 30.3c0-5.9 3.7-9.1 8.1-9.1 4.4 0 8 3.2 8 9.1 0 5.9-3.5 9.2-8 9.2-4.4 0-8.1-3.4-8.1-9.2Zm-13.7-26.6c0-3-2.4-5.4-5.4-5.4-2.9 0-5.3 2.4-5.4 5.4 0 2.9 2.4 5.3 5.4 5.3 3 0 5.4-2.4 5.4-5.3Zm-9.7 11.5V139c0 .6.5 1 1 1h6.7c.6 0 1-.5 1-1v-30.3c0-.6-.5-1-1-1h-6.7c-.6 0-1 .5-1 1ZM467 93.5V139c0 .6.4 1 1 1h6.7c.6 0 1-.5 1-1V93.5c0-.6-.5-1-1-1H468c-.6 0-1 .5-1 1ZM435.5 133c-4.5 0-8.3-3.3-8.3-9.1s3.7-9.1 8.2-9.2c3.8 0 5.8 2.2 6.8 4.6.2.5.7.8 1.2.6l6-2c.5-.2.8-.8.6-1.3-1.7-5.1-6.6-9.9-14.9-9.9-9.4 0-16.7 7.1-16.7 17.1 0 9.9 7.5 17.1 17 17.1 8.1 0 13-4.9 14.8-9.9.2-.5-.1-1.1-.6-1.3l-5.8-1.9c-.5-.1-1 .1-1.2.6-1 2.3-3.2 4.6-7.1 4.6Zm-19.8-35.8c0-3-2.4-5.4-5.4-5.4-3 0-5.4 2.4-5.4 5.4 0 2.9 2.4 5.3 5.4 5.3 3 0 5.4-2.4 5.4-5.3Zm-9.8 11.5V139c0 .6.5 1 1 1h6.7c.6 0 1-.5 1-1v-30.3c0-.6-.5-1-1-1h-6.7c-.6 0-1 .5-1 1ZM391 93.5V139c0 .6.4 1 1 1h6.7c.6 0 1-.5 1-1V93.5c0-.6-.5-1-1-1H392c-.6 0-1 .5-1 1Zm-37 0V139c0 .6.4 1 1 .9h6.5c.6 0 1-.5 1-1V136c1.7 2.7 5.1 4.7 9.6 4.7 9.2 0 15.2-7.2 15.2-17 0-9.5-5.5-16.8-14.9-16.8-4.8 0-8.4 2.1-9.8 4.4V93.5c0-.6-.5-1-1-1H355c-.6 0-1 .5-1 1Zm8.4 30.3c0-5.9 3.7-9.1 8.1-9.1 4.4 0 8 3.2 8 9.1 0 5.9-3.5 9.2-8 9.2-4.4 0-8.1-3.4-8.1-9.2Zm-31.8 17c3.4 0 7.1-1.3 8.9-4.3v2.5c.1.5.5.9 1 .9h6.4c.6 0 1.1-.5 1-1.1-.1-1.2-.2-3-.2-4.8v-25.4c0-.6-.5-1-1-1H340c-.6 0-1 .5-1 1v17.8c0 3.8-2.2 6.4-6.1 6.4-4.1 0-5.9-2.9-5.9-6.5v-17.6c0-.6-.5-1-1-1h-6.7c-.6 0-1 .5-1 1v19.4c0 7 4.5 12.7 12.3 12.7Zm-48.9-32v42.7c0 .5.5 1 1.1 1h6.7c.6 0 1-.5 1-1v-14.6c1.6 2.1 4.8 3.9 9.3 3.9 9.1 0 15.2-7.2 15.2-17 0-9.6-5.5-16.8-14.9-16.8-4.9 0-8.5 2.2-9.9 4.7v-2.9c0-.6-.5-1-1-1h-6.5c-.6 0-1 .5-1 1Zm8.6 15c0-5.7 3.6-9 8.1-9 4.4 0 8 3.4 8 9 0 5.8-3.5 9.1-8 9.1s-8.1-3.4-8.1-9.1Z" clip-rule="evenodd"/>
</svg>
